<?xml version="1.0" encoding="UTF-8"?><svg id="Layer_1" xmlns="http://www.w3.org/2000/svg" viewBox="0 0 16 16"><defs><style>.cls-1{fill:#008067;}</style></defs><path class="cls-1" d="m14.46,6.6c0-1.64-.02-3.27-.04-4.91-.09,0-.19,0-.28,0-.96.02-1.93,0-2.89-.02-.48,0-.96,0-1.44,0-.48,0-.97.03-1.45.02-.39,0-.79-.03-1.18-.03-.36,0-.73,0-1.09,0-.76,0-1.53,0-2.29.02-.73.01-1.47.03-2.2.03,0,.86-.02,1.71-.02,2.57,0,1.68-.02,3.36-.03,5.03-.01,1.67-.02,3.34-.02,5.01.06,0,.12,0,.17,0,.38,0,.77-.02,1.15-.03.41,0,.83,0,1.24,0,.86,0,1.72-.01,2.58,0,.91.02,1.82.05,2.72.04.86,0,1.72-.01,2.58-.01.83,0,1.66,0,2.48-.01,0-.91,0-1.82,0-2.73,0-1.66,0-3.32-.01-4.98Zm-2.87-4.55c.16.16.18.57.18.57,0,0,.35-.59.79-.58.43,0,.84.39,1.38.03,0,0-.2.55-.7.44-.5-.12-1.08-.2-1.35.17,0,0,.46-.19.74.1.27.29.32.58.32.58,0,0-.65-.56-1.09-.6l-.13-.07s-.12-.65-.85-.77c0,0,.53-.06.72.12ZM2.67,7.82c.09.03.18.08.26.14-.09-.03-.19-.04-.28-.05-.24-.03-.49.03-.65.19.24.24.62.22.93.13-.24.18-.58.25-.87.12-.12-.05-.22-.15-.3-.25.22-.3.55-.4.9-.28Zm10.71,6.15c-.16.15-.41.12-.58.02-.17-.1-.31-.24-.44-.4-.12-.15-.23-.3-.32-.47.05.09.09.18.11.28.05.33-.13.53-.47.51-.12,0-.24-.04-.36-.08-.02,0-.03-.03-.02-.04,0-.01.02-.02.03-.02.17-.03.34-.09.47-.21.06-.05.1-.11.14-.18.05-.08.08-.18.09-.28,0,0,0,0,0,0l.06-.04s0,0,0,0c.13.04.26.04.39.02.22-.03.39-.21.47-.42,0-.02.03-.03.05-.02,0,0,.02.01.02.02.04.13.06.26.05.4-.02.23-.27.35-.48.3-.17-.03-.32-.13-.44-.26.17.19.39.35.62.44.27.09.57,0,.81-.16,0,.19-.04.42-.19.55Zm.19-.72c-.23,0-.31-.14-.31-.26,0-.14.12-.19.14-.19-.01,0-.08.05-.08.18,0,.09.08.16.21.16s.26-.14.26-.4c0-.2-.15-.43-.53-.43s-.95.44-.98.46c0,0,0,0,0,0-.72.73-1.96,1.32-3.94,1.32-2.1,0-3.67-.76-4.72-1.9-.04.04-.08.1-.12.16-.06.09-.1.21-.12.34,0,.03,0,.06,0,.1,0,.03,0,.07,0,.1v.05s.01.03.02.05c0,.03.02.07.03.1.03.06.06.12.1.17.04.05.09.09.14.12.05.03.11.05.16.06.05,0,.1,0,.15-.01.07-.02.1-.09.11-.14,0-.03,0-.05,0-.06,0-.01,0-.02,0-.02,0-.05-.02-.09-.04-.11-.02-.03-.04-.04-.07-.05-.03,0-.06,0-.08,0-.02,0-.04,0-.04-.02s0-.02.02-.04c.02-.02.05-.04.1-.05.03,0,.06,0,.09,0,.03,0,.06.03.09.05.05.05.08.12.09.19,0,0,0,.01,0,.03,0,.02,0,.05,0,.1,0,.04-.02.09-.05.14-.03.05-.09.11-.16.13-.07.02-.14.03-.22.03-.08,0-.16-.03-.23-.07-.08-.04-.14-.1-.2-.16-.06-.07-.1-.14-.14-.22-.02-.04-.03-.08-.04-.12,0-.02-.01-.04-.02-.06v-.06s-.02-.08-.02-.12c0-.04,0-.08,0-.12,0-.11.04-.22.07-.31,0,0,0,0-.01.01-.08.12-.16.29-.26.47-.09.18-.19.36-.32.54-.06.09-.13.18-.23.25-.01,0-.03.02-.04.03h-.02s-.02.02-.02.02c-.02,0-.03.01-.05.01h-.04s-.06.02-.09.02c-.03,0-.06,0-.09,0-.12-.02-.22-.09-.28-.18-.07-.08-.1-.18-.11-.28,0-.02,0-.05,0-.07,0-.02,0-.04.01-.07,0-.02.01-.04.02-.06,0-.02.02-.03.03-.05.04-.06.08-.11.13-.15.02-.02.04-.03.06-.04,0,0,.02,0,.03-.01,0,0,.02,0,.02,0,.03-.01.04-.01.04-.01.05-.01.1-.01.15,0,.05,0,.1.03.14.06.02.02.04.04.05.06,0,.02.01.04.02.07,0,.05-.01.09-.03.12-.04.06-.1.08-.14.08-.04,0-.05-.03-.05-.04,0-.01.02-.01.04-.03,0,0,.02-.01.03-.03,0-.01.02-.03.02-.04,0-.02,0-.03,0-.05,0,0,0-.02-.01-.02,0,0,0,0-.02-.01-.03-.02-.09-.03-.14,0,0,0,0,0-.03,0,0,0,0,0-.01,0,0,0-.01,0-.02,0-.01,0-.02.02-.04.02-.03.02-.05.05-.08.1,0,.01-.01.02-.02.03,0,.01,0,.02-.01.04,0,.01,0,.03,0,.04,0,.01,0,.03,0,.04,0,.06.03.12.08.18.04.05.11.09.18.11.07.01.15,0,.21-.05.06-.05.13-.12.18-.2.11-.16.2-.35.29-.52.09-.18.16-.35.26-.49.01-.02.02-.03.03-.05,0,0,0,0,0,0-.15.03-.32.04-.5,0-.18-.04-.37-.11-.52-.25-.02-.02-.04-.04-.05-.06,0-.01-.02-.02-.02-.03l-.02-.03s-.05-.09-.07-.13c-.04-.09-.05-.19-.04-.29.01-.1.06-.19.12-.26.03-.03.06-.06.1-.09.02-.01.04-.02.06-.03.02-.01.04-.02.06-.02.08-.02.16-.02.22,0,.06.02.11.04.15.07.02.01.03.03.05.04.01.01.02.03.03.04.01.02.02.04.02.04.02.04.03.1.02.14,0,.02-.01.04-.02.06,0,0-.01.02-.02.03,0,0-.01.02-.02.03-.03.03-.07.06-.1.07-.04,0-.07,0-.1,0-.03,0-.05-.02-.07-.04-.02-.02-.02-.04-.03-.05,0-.02,0-.03,0-.04,0,0,.01-.01.02-.01.01,0,.02,0,.03.02.02.01.04.02.07.02.01,0,.03,0,.04-.01.01,0,.02-.02.03-.03,0,0,0,0,0-.01,0,0,0,0,0-.01,0,0,0-.02,0-.03,0-.02,0-.03,0-.05,0,0,0-.02-.05-.06-.02-.02-.05-.03-.09-.04-.04,0-.09,0-.13,0-.01,0-.02,0-.03.01,0,0-.02.01-.03.02-.02.02-.04.04-.06.06-.04.05-.06.1-.07.16,0,.06,0,.13.04.2.01.03.03.07.05.1l.02.02s.01.02.02.02c0,.01.02.03.03.04.05.05.12.09.19.12.07.03.15.05.22.06.15.02.29.01.42-.02.12-.03.22-.08.29-.12.01,0,.02-.01.03-.02-.74-.94-1.16-2.09-1.27-3.25.13.13.31.22.51.22.39,0,.71-.32.71-.71s-.32-.71-.71-.71c-.21,0-.39.09-.52.23.09-1.54.73-3.06,1.93-4.14-.09-.01-.25-.04-.44-.05-.14,0-.31-.01-.48,0-.09,0-.17.02-.25.04-.09.02-.17.05-.24.09-.07.04-.14.09-.18.15-.02.03-.04.06-.05.1,0,.03-.02.07-.02.11,0,.07.02.14.05.19,0,.01.02.03.03.04,0,.01.02.02.03.03.02.02.04.03.06.05.05.02.1.03.14.03.05,0,.08-.01.11-.03,0,0,.01,0,.02,0,0,0,.01,0,.02,0,0,0,0,0,.01,0,0,0,0,0,0,0,0,0,.01,0,.01-.01,0,0,0,0,0,0,0,0,0,0,.01-.01,0,0,0,0,0-.01,0,0,0-.02.01-.03,0,0,0,0,0-.01,0,0,0,0,0-.01,0-.01,0-.02,0-.03,0-.02,0-.03-.02-.04,0-.01-.02-.02-.03-.02-.03,0-.05,0-.07,0-.02,0-.03.02-.04.02,0,0-.02-.03,0-.06,0-.02.02-.03.04-.05.02-.01.05-.02.09-.02.03,0,.07.01.11.04,0,0,.02.01.02.02,0,0,.01.02.02.03.01.02.02.04.03.06,0,.02,0,.04.01.06,0,.01,0,.02,0,.03,0,.01,0,.02,0,.04,0,.02-.01.05-.03.07,0,.01-.01.02-.02.03,0,0-.02.02-.02.03,0,0,0,0,0,0,0,0-.01.01-.02.02,0,0-.01,0-.02.02,0,0-.01,0-.02.01,0,0-.02.01-.03.02,0,0-.02,0-.03.02-.04.02-.1.04-.17.04-.07,0-.15,0-.23-.04-.17-.07-.28-.26-.28-.47,0-.05,0-.1.02-.16.01-.05.04-.1.07-.15.06-.1.15-.17.24-.22.09-.05.19-.09.28-.11.05-.01.11-.03.16-.04-.04-.01-.08-.03-.12-.05-.09-.04-.18-.1-.25-.18l-.05-.06-.04-.06v-.02s-.02-.02-.02-.02l-.02-.04s-.01-.02-.02-.04v-.04c-.04-.1-.05-.21-.02-.31.03-.1.09-.18.16-.24.07-.06.16-.1.24-.11.02,0,.04,0,.06,0,.02,0,.04,0,.05,0,.02,0,.03,0,.05,0,.02,0,.03,0,.05.01.06.02.11.05.15.09.04.03.06.07.07.09,0,.01.01.02.01.03,0,0,0,0,0,0,.02.04.03.09.02.13,0,.04-.02.09-.03.12-.04.07-.09.11-.14.13-.05.02-.09.02-.12.02-.03,0-.04-.02-.04-.03,0-.02.05-.04.11-.09.03-.02.05-.06.07-.1.01-.04.01-.08,0-.12,0,0,0,0,0,0,0,0,0,0,0-.01,0-.01-.02-.03-.04-.05-.02-.02-.05-.04-.09-.05,0,0-.02,0-.03,0-.01,0-.02,0-.03,0-.01,0-.02,0-.04,0-.01,0-.02,0-.04,0-.05,0-.1.03-.14.07-.04.04-.08.09-.09.16-.03.13.02.27.13.38.1.11.26.17.41.2.16.03.31.04.45.05.09,0,.18.01.25.02-.02-.02-.04-.04-.06-.06-.04-.05-.08-.1-.12-.16-.02-.03-.04-.07-.05-.11,0-.02-.01-.04-.02-.06,0-.02,0-.04,0-.06,0-.08,0-.16.03-.23.02-.07.06-.15.12-.2.01-.02.03-.03.04-.04.02-.01.03-.02.05-.03.04-.02.07-.03.1-.05.07-.02.14-.03.21-.02.07.01.14.05.18.09.05.04.08.09.09.14,0,.01,0,.02.01.03,0,.01,0,.02,0,.03,0,.02,0,.04,0,.06,0,.04,0,.06,0,.08,0,.02,0,.03,0,.03,0,.02-.01.03-.02.05,0,.01-.02.03-.03.04-.02.03-.05.05-.08.06-.06.03-.11.02-.15.01-.08-.02-.11-.06-.1-.08,0-.02.05-.02.11-.04.03,0,.05-.02.07-.03.02-.01.03-.03.04-.07,0,0,0-.02,0-.06,0-.04-.02-.1-.07-.14-.02-.02-.06-.04-.09-.04-.04,0-.08,0-.13.02-.05.02-.08.04-.11.08-.03.04-.05.08-.07.13-.01.05-.02.1-.01.15,0,.01,0,.02,0,.04,0,.01,0,.02.01.03,0,.02.02.04.03.06.06.09.14.17.21.23.07.06.14.1.19.13.04.03.08.04.09.05,1.01-.79,2.36-1.29,4.06-1.29,1.97,0,3.21.6,3.94,1.32,0,0,0,0,0,0,.02.02.58.46.98.46s.53-.23.53-.43c0-.26-.12-.4-.26-.4s-.21.06-.21.16c0,.12.07.17.08.18-.02,0-.14-.05-.14-.19,0-.12.08-.26.31-.26s.43.21.43.58c0,.46-.46.72-1.12.72.18.36.26.71.26,1,0,.8-.37,1.36-.86,1.36-.39,0-.92-.22-.92-.93,0-.24.19-.43.43-.43s.43.19.43.43c0,.15-.08.28-.2.36,0,0,.04.22.27.22s.31-.34.31-.61c0-1.42-1.72-2.94-4.19-2.94-1.95,0-4.18,1.72-4.18,5.49s2.23,5.49,4.18,5.49c2.47,0,4.19-1.53,4.19-2.94,0-.28-.08-.61-.31-.61s-.27.22-.27.22c.12.08.2.21.2.36,0,.24-.19.43-.43.43s-.43-.19-.43-.43c0-.71.54-.93.92-.93.48,0,.86.55.86,1.36,0,.29-.08.64-.26,1,.66,0,1.12.26,1.12.72,0,.38-.2.58-.43.58Zm-.39-5.36c.12.19.34.28.46.2.05-.03.11-.02.14.03.03.05.02.11-.03.14-.07.04-.14.06-.22.06-.19,0-.4-.12-.53-.32-.19-.29-.16-.65.06-.79.05-.03.11-.02.14.03s.02.11-.03.14c-.13.08-.13.31,0,.5Zm.81.95c.05.23-.04.33-.16.35s-.24-.03-.28-.26c-.03-.16-.02-.37.03-.49l.17.33.03-.37c.09.09.18.28.21.44Zm-3.1,2.11c.2.02.41,0,.61-.02l.07.1c-.06.1-.15.17-.25.22.13.02.26.02.39.02.07,0,.14-.01.2-.02l.05.07c-.07.1-.16.18-.27.22-.25.1-.51.04-.75-.07l-.04-.04c.3.12.67.16.9-.06-.25.05-.51.06-.74-.06l.02-.13c.07-.01.15-.04.21-.08,0,0,.02,0,.02-.01-.08,0-.15.01-.23.01-.15,0-.3,0-.44-.08v-.12s.07-.05.1-.07c.18-.15.32-.35.36-.58-.15.18-.33.32-.54.42-.09.04-.2.08-.3.09l-.05-.12c.12-.1.23-.24.28-.39.03-.09.04-.18.03-.27-.15.3-.4.56-.7.71l-.08-.12s.02-.01.02-.02c.08-.09.13-.21.16-.33-.03.04-.07.08-.1.11-.24.25-.55.44-.89.53.21-.08.41-.2.58-.35.17-.15.32-.32.43-.51l.11.02c0,.06.01.12,0,.18,0,.06-.02.13-.04.19.21-.17.37-.4.45-.65,0,0,.13-.01.13-.01.13.28.06.59-.12.83.09-.04.18-.09.27-.16.15-.11.28-.26.39-.41l.13.03c.02.3-.1.61-.32.82-.04.04-.08.07-.12.1.02,0,.04,0,.06,0Zm-.53,1.2c.01.08.05.16.09.22l.03.04s0,0,.01.01c.17-.19.16-.46.1-.71.15.19.22.46.11.69-.04.11-.13.18-.21.26l-.06-.05c-.21-.17-.27-.45-.17-.69.03-.07.07-.14.12-.2-.03.14-.05.29-.02.43Zm.06-.8c-.16-.11-.35-.22-.57-.29-.11-.03-.23-.05-.35-.05-.06,0-.12,0-.18.02-.03,0-.06.01-.08.02.07,0,.13.02.2.05.1.04.2.09.27.16.02.02.04.03.05.05.02.02.03.04.05.05.02.02.03.04.04.06.01.02.02.04.03.06,0,.02.02.04.02.06,0,.02.01.04.02.05,0,.04.01.07,0,.09,0,.01,0,.02,0,.03,0,0,0,.02,0,.03,0,.01,0,.02,0,.02-.02.09-.08.15-.12.18-.05.03-.08.04-.1.02-.01-.02,0-.05.01-.09.02-.04.04-.09.05-.15,0,0,0,0,0-.01,0,0,0,0,0-.01,0,0,0-.01,0-.02,0-.02,0-.03,0-.05,0-.01,0-.02-.01-.03,0-.01-.01-.02-.02-.04,0-.01-.01-.02-.02-.04,0-.01-.02-.03-.03-.04-.01-.01-.02-.03-.04-.04-.01-.01-.03-.02-.04-.04-.06-.05-.13-.09-.22-.11-.08-.03-.17-.03-.25-.03-.02,0-.04,0-.07,0-.21.03-.58.1-.79.42-.05.09-.1.18-.13.27-.03.09-.05.18-.06.26,0,.02,0,.04,0,.06,0,.02,0,.04,0,.06,0,.04,0,.07,0,.1,0,.03,0,.06,0,.09v.07s0,.06,0,.08c.03.47.04.67.03.76-.27-.03-.54-.09-.81-.18-.02-.11-.04-.39-.05-.5,0,0,0-.03,0-.06s0-.07-.02-.11c-.01-.05-.02-.1-.04-.16,0-.03-.02-.06-.03-.09-.01-.03-.03-.06-.04-.1-.06-.13-.15-.27-.28-.39-.12-.12-.28-.23-.45-.32-.09-.04-.17-.08-.26-.11-.04-.02-.09-.03-.13-.05-.04-.02-.09-.03-.13-.04-.17-.04-.33-.07-.48-.07-.03,0-.07,0-.1,0-.03,0-.06,0-.09,0-.05,0-.09.01-.12.02-.03-.05-.06-.1-.08-.15,0,0,.02,0,.03,0,.04-.01.1-.02.16-.03.03,0,.06,0,.1,0,.03,0,.07,0,.11,0,.15,0,.33.01.52.06.05.01.1.02.14.04.05.02.09.03.14.05.09.03.19.07.28.12.19.09.37.2.52.34.15.14.26.3.33.45.02.04.03.07.05.11.01.03.02.07.04.1,0-.1,0-.21-.01-.33,0-.19-.02-.41-.04-.64,0-.06-.01-.12-.02-.17,0-.06-.01-.12-.02-.18-.01-.12-.03-.24-.05-.35-.05-.23-.11-.46-.19-.67-.08-.2-.18-.38-.29-.51-.11-.13-.22-.2-.31-.22-.04-.01-.07-.01-.1-.01-.02,0-.04,0-.04,0-.08,0-.15.03-.2.07-.05.04-.09.09-.12.14-.06.1-.08.17-.11.17-.02,0-.04-.08,0-.21.02-.06.06-.14.13-.2.07-.06.17-.11.28-.12,0,0,.02,0,.05,0,.03,0,.08,0,.14.02.06.02.13.04.2.09.07.04.14.11.2.18.26.29.45.76.55,1.25,0,.01,0,.03,0,.04-.03-.6-.08-1.31-.13-2.03.07,0,.14.02.21.02.06.74.11,1.46.15,2.07.02-.15.05-.3.1-.46.08-.26.19-.53.35-.77.08-.12.17-.23.26-.34.08-.09.17-.18.25-.26.08.03.14.05.21.08,0,0-.01.01-.02.02-.1.1-.2.19-.28.3-.09.1-.17.21-.24.32-.15.22-.25.47-.32.72-.07.25-.1.5-.12.74,0,.06,0,.12-.01.18,0,.06,0,.12,0,.18,0,.06,0,.11,0,.17,0,.06,0,.11,0,.17,0,.14,0,.28.02.41.02-.09.04-.19.08-.29.04-.11.09-.22.16-.32.07-.11.16-.21.26-.3.2-.18.47-.31.74-.37.07-.02.14-.03.2-.04h.05s.03-.01.05-.01c.04,0,.07,0,.11,0,.14,0,.28.03.4.07.25.08.45.21.62.32.13.09.24.18.32.26l.04.04s.01.01.02.02c.09.08.13.13.13.13.29.29.47.58.43.61-.04.03-.26-.21-.55-.49,0,0-.05-.04-.13-.12-.08-.07-.21-.18-.36-.29Zm-1.16.47c-.18,0-.23.12-.23.27,0,.03,0,.05,0,.07-.04-.04-.07-.1-.07-.19,0-.19.07-.34.29-.34s.29.15.29.34c0,.08-.03.15-.07.19,0-.02,0-.04,0-.07,0-.15-.06-.27-.23-.27Zm-.24.36s-.04-.02-.06-.03c-.14-.05-.28-.03-.33.14-.05.17.04.26.19.31.03,0,.05.01.07.01-.05.03-.12.04-.2,0-.18-.06-.3-.17-.23-.39s.24-.23.42-.17c.08.03.13.07.15.12Zm-.31.56c.05-.07.11-.1.17-.11-.02.01-.03.03-.05.05-.09.12-.11.25.03.36.14.1.26.04.35-.08.02-.02.03-.04.03-.06.01.06,0,.12-.05.19-.11.15-.26.23-.44.1s-.15-.3-.04-.45Zm.29-.25c0-.15.12-.26.26-.26s.26.12.26.26-.12.26-.26.26-.26-.12-.26-.26Zm.3.47c.09.12.21.19.35.08.14-.1.12-.24.03-.36-.02-.02-.03-.04-.05-.05.06,0,.12.04.17.11.11.15.14.32-.04.45-.18.13-.33.05-.44-.1-.05-.07-.06-.13-.05-.19,0,.02.02.04.03.06Zm.55-.34c-.08.03-.15.02-.2,0,.02,0,.05,0,.07-.01.14-.05.24-.14.19-.31-.05-.17-.19-.18-.33-.14-.03,0-.05.02-.06.03.03-.05.07-.1.15-.12.18-.06.35-.04.42.17s-.05.33-.23.39Zm-2.83.1c-.24.02-.5-.09-.63-.31-.06-.1-.07-.21-.09-.32l.07-.02c.3-.08.6.09.72.37.02.04.03.07.04.11-.05-.06-.11-.11-.16-.16-.12-.1-.26-.17-.41-.17h-.05s-.01,0-.02,0c.06.25.29.4.52.5Zm-1.6-6.12s-.03-.15.1-.28c0,0,0,.25.23.49,0,0-.13-.21-.1-.43l.09.1v-.21s.15.16.21.32c0,0-.06-.24-.17-.43,0,0,.15.1.23.26,0,0,.03-.15-.1-.34,0,0,.24.11.43.48,0,0-.08-.28-.37-.54,0,0,.17-.03.35.17,0,0-.1-.19-.28-.27.18-.06.38.02.47.19l.03.06c.1.19.03.44-.16.54-.22-.01-.39.08-.5.27-.19.1-.44.03-.54-.16l-.03-.06c-.09-.17-.05-.37.09-.49-.02.11-.02.22.03.34Zm1.75-2.19l.09.06c.01.11,0,.22,0,.32-.01.13-.03.27-.05.4,0,.05-.08.04-.07-.01.01-.2,0-.4,0-.59-.03.03-.05.06-.07.09-.04.07-.06.15-.07.23l-.13.02c-.11-.31-.03-.75.06-1.1-.12.11-.2.25-.22.41,0,.03,0,.06,0,.09l-.13.04c-.1-.2-.12-.42-.13-.64-.08.11-.11.23-.09.36,0,.04-.06.06-.07.01-.05-.16-.03-.33.08-.48.03-.04.06-.08.1-.11l.12.06c0,.15,0,.32.03.47.05-.12.12-.23.21-.31.05-.05.11-.1.18-.14l.1.08c-.07.26-.17.62-.16.93.05-.09.12-.16.23-.2Zm-.76.14s.02.02.05.07c.04.04.09.11.15.2.12.17.29.43.44.76.07.15.13.32.18.5,0-.03,0-.07,0-.12.01-.14.03-.34.07-.57.04-.23.09-.48.17-.75.04-.13.09-.27.14-.41.06-.14.12-.27.19-.4.02-.03.04-.06.06-.1.02-.03.04-.06.06-.09.02-.03.04-.06.07-.09.02-.03.05-.06.07-.09.02-.03.05-.05.08-.08.03-.03.05-.05.08-.08.03-.02.06-.05.08-.07.03-.02.06-.04.09-.06.03-.02.06-.04.09-.05.03-.02.06-.03.09-.05.03-.01.06-.03.1-.04.03,0,.06-.02.1-.03.02,0,.03,0,.05-.01.02,0,.03,0,.05,0,.03,0,.06,0,.09-.01.06,0,.12,0,.18,0,.06,0,.11,0,.16.01.03,0,.05,0,.08.01.02,0,.05,0,.07.02.05.01.09.02.13.04.02,0,.04.02.05.02.02,0,.03.02.05.03.06.03.1.07.13.09.03.03.04.04.04.04.08.09.14.2.16.3.02.1.03.2.01.27-.02.16-.08.23-.1.23-.02,0,0-.1-.01-.23,0-.07-.02-.15-.04-.23-.03-.08-.07-.16-.14-.23,0,0-.01-.01-.03-.03-.01,0-.03-.02-.04-.03-.02-.01-.04-.03-.06-.04-.09-.06-.25-.11-.45-.11-.2,0-.43.05-.64.18-.03.02-.05.04-.08.05-.02.02-.05.04-.07.06-.03.02-.05.04-.07.07-.02.02-.05.05-.07.07-.02.03-.04.05-.06.08-.02.03-.04.06-.06.08-.02.03-.04.06-.06.09-.02.03-.04.06-.05.09-.07.12-.12.25-.17.38-.05.13-.09.26-.13.39-.07.26-.12.51-.15.73-.03.22-.05.41-.06.55-.01.14-.01.23-.02.26,0,.05,0,.1,0,.15-.02.33-.03.81,0,1.18-.06,0-.13.01-.19.02,0,0-.02-.78-.4-1.47-.04-.06-.07-.13-.12-.18-.09-.12-.19-.21-.31-.26-.03-.01-.06-.02-.09-.03-.03,0-.06-.01-.09-.01-.06,0-.11,0-.16.01-.1.02-.18.07-.23.1-.03.02-.04.03-.06.04-.01.01-.02.02-.02.02-.08.07-.15.15-.19.21s-.07.1-.09.1c-.02,0-.03-.06,0-.14.02-.08.09-.19.18-.28,0,0,0,0,.02-.02.02-.01.04-.03.07-.05.06-.04.15-.1.28-.13.06-.02.14-.03.21-.03.04,0,.08,0,.12.01.04,0,.08.02.12.03.16.06.29.18.4.31.06.07.1.14.15.22-.04-.14-.09-.27-.14-.39-.14-.32-.3-.57-.42-.74-.06-.08-.11-.15-.14-.19-.03-.04-.05-.07-.05-.07-.23-.29-.46-.53-.63-.7l-.02-.02s.01-.01.02-.02c.02-.02.04-.04.05-.06,0,0,.01,0,.02.01.19.15.44.39.68.68Zm4.65,2.76c.23-.02.48.01.67.16l-.05.12c-.21,0-.42.02-.62.07-.13.03-.26.07-.38.12.15.02.29.08.37.21,0,0-.07.1-.07.1-.19-.03-.38,0-.56.05-.1.02-.2.05-.29.09-.06.02-.1-.06-.04-.09.04-.02.07-.04.11-.06.18-.09.38-.14.58-.14-.1-.03-.22-.04-.31-.05l-.04-.13c.3-.19.64-.28.99-.31-.04-.01-.09-.02-.13-.02-.13-.01-.28,0-.41.03,0,0-.09-.08-.09-.08.03-.1.11-.15.18-.21.13-.1.27-.17.41-.25.02,0,.03-.02.05-.03-.2-.03-.37.06-.51.19-.04.04-.11-.02-.07-.07.1-.12.23-.22.4-.26.14-.02.28,0,.41.05v.13c-.21.1-.43.21-.61.36,0,0,.02,0,.03,0Zm.23-1.81s-.01.07-.02.12c-.01.05-.02.1-.04.16-.03.12-.07.26-.13.42-.06.16-.13.34-.22.53s-.21.39-.35.59c-.04.05-.07.1-.11.15-.04.05-.08.1-.12.15-.04.05-.08.09-.13.14-.04.05-.09.09-.13.14-.18.19-.38.38-.58.56,0,0-.02.02-.03.03-.05-.04-.1-.08-.16-.12.02-.02.04-.03.06-.05.2-.18.4-.36.58-.55.04-.05.09-.09.13-.14.04-.05.08-.09.13-.14.04-.05.08-.09.12-.14.04-.05.07-.09.11-.14.14-.19.25-.38.34-.56.09-.18.16-.35.22-.51.05-.16.1-.29.13-.41.02-.06.03-.11.04-.15.01-.04.02-.08.03-.11.01-.06.02-.09.02-.09.08-.41.11-.8.12-1.07.01-.28.01-.45.03-.45.02,0,.06.17.08.45.02.28,0,.68-.07,1.1,0,0,0,.03-.02.1Zm-1.5-1.16s-.01-.05-.02-.08c-.07-.16-.19-.27-.39-.19-.19.08-.2.25-.13.41.01.03.03.05.04.07-.07-.02-.13-.08-.17-.17-.09-.21-.08-.41.16-.52s.4.03.49.24c.04.09.04.17.01.24Zm.19.56c-.05.17-.23.26-.4.21s-.26-.23-.21-.4c.05-.17.23-.26.4-.21.17.05.26.23.21.4Zm-.7-.32s-.05,0-.09,0c-.18.02-.32.1-.3.31.02.21.17.27.35.25.03,0,.06,0,.08-.02-.04.06-.11.1-.21.11-.23.02-.42-.05-.44-.31-.03-.27.15-.37.37-.39.1,0,.18.02.23.06Zm-.07.76c.02-.1.07-.16.13-.2-.01.02-.02.05-.03.08-.04.17,0,.33.2.38.21.05.31-.08.34-.26,0-.03,0-.06,0-.09.04.06.06.14.03.24-.05.22-.17.38-.43.32-.26-.06-.3-.26-.26-.48Zm.72.78l.07.03c.32.1.46.46.36.77-.04-.23-.13-.47-.34-.58-.08.22.02.45.15.65-.2-.11-.35-.33-.34-.57,0-.11.05-.21.1-.31Zm.65-.79c-.14.23-.34.21-.53.1-.09-.05-.13-.12-.15-.19.02.02.04.04.07.05.15.09.31.11.42-.08.11-.18.02-.32-.14-.41-.03-.02-.05-.03-.08-.03.07-.02.15-.01.23.04.19.12.31.28.17.51Zm-.18-.67c-.08.07-.15.09-.22.08.02-.01.05-.03.07-.05.13-.12.2-.27.06-.42-.14-.16-.29-.11-.43,0-.02.02-.04.04-.06.07,0-.07.04-.14.11-.21.17-.15.36-.21.54,0,.18.2.1.39-.07.54Zm-2.64,2.38l-.11-.09c.04-.06.1-.14.14-.2.1-.17.18-.36.21-.56-.19.12-.33.32-.4.54-.01.04-.07.03-.07-.02.02-.2.1-.4.26-.54.08-.07.16-.13.26-.17l.1.05c.01.18-.04.36-.11.53-.01.02-.02.05-.03.07.06-.03.12-.06.19-.08l.09.07c-.01.24-.15.46-.33.62-.08.08-.2.12-.3.17-.02,0-.04.01-.05.02-.04.01-.06-.04-.03-.06.02,0,.03-.02.05-.03.21-.15.42-.32.5-.57,0,0,0-.02,0-.03-.13.07-.25.18-.35.29Zm-1.2.29c0,.07-.02.15-.04.21-.16-.02-.28-.11-.34-.25h0c-.01.19-.39.21-.39.21.28-.13.21-.54.21-.54,0,0,0-.08.13-.15.13-.07.19-.02.19-.02,0,0,.31.28.57.12,0,0-.22.31-.39.21.04.06.07.13.07.21Zm-.19-2.4c-.22-.08-.47-.11-.67.02.16.18.41.19.64.18-.19.13-.46.15-.66.03-.1-.05-.16-.15-.22-.23l.06-.05c.24-.24.63-.19.85.05Zm3.11,1.73c0-.31-.16-.55-.35-.55-.17,0-.27.08-.27.18.12.04.22.15.22.29,0,.17-.14.3-.3.3s-.3-.14-.3-.3c0-.44.22-.71.64-.71s.68.37.68.9c0,1.06-1.31,1.34-1.31,1.34,0,0,1.31.28,1.31,1.34,0,.52-.25.9-.68.9s-.63-.28-.64-.71c0-.17.14-.3.3-.3s.3.14.3.3c0,.14-.09.25-.22.29,0,.11.1.18.27.18.2,0,.35-.24.35-.55,0-1.37-5.02-1.07-5.02-1.07,0,0-.02-.16-.02-.37s.02-.37.02-.37c0,0,5.02.29,5.02-1.07Zm-1.44,4.09c.06-.2.24-.37.45-.39.1-.02.2.02.3.05l-.02.07c-.03.22-.22.4-.44.43-.07.01-.13.01-.2,0,.06-.02.12-.05.17-.08.12-.07.23-.16.28-.3,0,0,0,0,0,0-.2-.03-.39.09-.54.22Zm-.93-1.46c-.24-.05-.41-.31-.33-.55l.02-.07h.08c.25.04.41.3.36.54-.07-.14-.16-.28-.3-.34-.01.15.08.29.18.41Zm-1.48,1.15s.04-.01.05-.02c-.02.04-.06.07-.12.09-.14.04-.26.02-.31-.14s.05-.25.19-.29c.06-.02.11-.01.15.01-.02,0-.03,0-.05,0-.11.03-.19.1-.15.23.04.13.14.15.25.11Zm.06,0s0,.03,0,.05c0,.11.04.21.17.21.13,0,.18-.09.18-.2,0-.02,0-.04,0-.05.03.03.05.08.05.14,0,.14-.06.26-.23.25-.17,0-.22-.12-.21-.27,0-.06.02-.11.06-.14Zm.36,0s.03.02.05.03c.11.04.21.03.25-.1.05-.13-.03-.2-.13-.24-.02,0-.04-.01-.05-.01.04-.02.09-.02.15,0,.13.05.22.14.17.3s-.19.17-.32.12c-.06-.02-.1-.06-.11-.1Zm.25-.42c-.04.05-.08.07-.13.08.01,0,.03-.02.04-.04.07-.09.09-.19-.01-.27-.11-.08-.2-.04-.27.05-.01.02-.02.03-.03.05,0-.04,0-.09.05-.14.09-.11.2-.17.34-.07.13.1.1.23.02.34Zm-.25.05c.06.09.04.22-.05.28s-.22.04-.28-.05c-.06-.09-.04-.22.05-.28s.22-.04.28.05Zm-.19-.24c-.06-.09-.15-.15-.26-.07-.11.07-.1.18-.03.27.01.02.02.03.04.04-.05,0-.09-.03-.12-.09-.08-.12-.1-.25.04-.34.14-.09.25-.03.33.09.04.05.04.1.03.15,0-.02-.01-.03-.02-.05Zm1.25,1.64c-.21-.04-.4-.19-.45-.39-.03-.1,0-.2,0-.3h.08c.31,0,.53.29.51.58-.1-.18-.23-.36-.43-.39,0,.2.14.37.29.51Zm4.17-1.73l-.11.06c-.24-.17-.5-.33-.78-.43-.07-.03-.14-.06-.21-.09-.06-.02-.03-.11.03-.1.08.01.15.03.23.06.24.1.46.21.67.35-.08-.24-.29-.43-.52-.53l.02-.13c.32-.02.62.04.92.13-.06-.07-.14-.12-.23-.15-.06-.03-.13-.05-.19-.06-.06-.01-.05-.11.01-.1.16,0,.32.05.44.16.09.07.15.16.19.26l-.09.09c-.25-.08-.52-.16-.79-.18.22.16.38.4.4.67Zm.28-1.45s-.03,0-.08.01c-.05,0-.13.02-.22.04-.18.03-.43.09-.67.15-.12.03-.24.07-.35.11-.11.04-.22.08-.31.11-.05.02-.09.03-.12.05-.03.01-.06.03-.09.04-.04-.07-.09-.13-.14-.2.01,0,.03-.01.04-.02.03-.01.06-.03.1-.04.04-.01.08-.03.13-.05.09-.04.21-.07.32-.1.12-.03.24-.07.37-.1.25-.06.5-.1.69-.13.09-.01.17-.02.23-.03.05,0,.09,0,.09,0,.2-.02.36,0,.36.05,0,.05-.15.09-.34.11Zm.25-.65c0-.16.09-.3.4-.32.22-.01.49.04.64.13l-.47.16.48.11c-.14.1-.4.18-.62.19-.31.01-.42-.11-.43-.28Zm1.05-.32c-.13,0-.32-.08-.46-.18-.2-.14-.2-.26-.13-.37s.19-.14.39,0c.14.1.27.25.32.38l-.35-.12.23.29Zm-.65.84c.21-.13.5-.24.69-.23l-.36.42.53-.16c-.07.18-.28.4-.49.53-.29.19-.47.13-.57-.03-.1-.15-.09-.34.21-.53Zm.58.61c.1-.2.28-.41.42-.49l-.09.48.33-.36c.02.17-.04.44-.14.64-.14.28-.3.31-.45.24-.15-.07-.22-.22-.08-.5Zm1-.79s0,0-.01,0c-.07.04-.14.05-.22.04.04-.03.08-.07.12-.1.13-.11.25-.24.35-.37h0s0,0,0,0c-.01.01-.02.02-.04.03-.11.11-.23.2-.35.29-.01,0-.03.02-.04.02-.05.03-.09.06-.14.1-.05-.03-.1-.07-.14-.12,0,0,0,0,0,0,.08-.06.15-.12.23-.18.16-.12.34-.23.52-.32,0,0,.02,0,.03-.01h0s0,0,0,0c-.21.07-.4.17-.58.28-.08.05-.16.1-.24.17-.01-.02-.02-.04-.02-.06,0-.02,0-.03-.01-.05.04-.04.08-.08.12-.11.11-.09.24-.16.37-.22,0,0,.01,0,.01,0h0s0,0,0,0c-.08.02-.15.04-.22.07-.1.04-.2.09-.28.16,0-.09.05-.17.13-.22,0,0,0,0,.01,0,.33-.2.99-.2.99-.2,0,0-.31.66-.57.85Z"/><path class="cls-1" d="m14.68,0H1.32C.59,0,0,.59,0,1.32v13.36c0,.73.59,1.32,1.32,1.32h13.36c.73,0,1.32-.59,1.32-1.32V1.32C16,.59,15.41,0,14.68,0Zm-.12,14.48c-.1,0-.21,0-.31,0-.86,0-1.72,0-2.59.01-.86,0-1.73.02-2.59.02-.91,0-1.81-.04-2.72-.05-.85-.02-1.7,0-2.55,0-.41,0-.81,0-1.22,0-.38,0-.76.02-1.14.02-.05,0-.09-.04-.09-.09,0-.96,0-1.93,0-2.89,0-1.67.02-3.34.03-5.02,0-.84,0-1.69.01-2.53,0-.78.02-1.57.02-2.35,0-.03,0-.04.02-.06,0,0,0,0,0,0,0,0,0,0,0,0,.01-.01.03-.02.06-.02.11,0,.22,0,.32,0,.75,0,1.5-.02,2.25-.03.76-.01,1.51-.01,2.27-.01.36,0,.71,0,1.07,0,.43.01.86.03,1.29.03.49,0,.97-.03,1.46-.03.48,0,.96,0,1.44.01.96.02,1.93.04,2.89,0,.05,0,.09.04.09.09,0,.94.02,1.88.02,2.82.01,1.66.02,3.32.02,4.98,0,1.67,0,3.33,0,5,0,.05-.04.09-.09.09Z"/></svg>