<svg id="icono-erase" xmlns="http://www.w3.org/2000/svg" viewBox="0 0 16 20">
<path class="cls-1" d="m8.35,9.33c-.53,0-.96.18-1.29.54s-.53.89-.6,1.6h0l2.79-.16c.16-.01.27-.05.32-.11.05-.06.07-.18.07-.36,0-.49-.11-.86-.32-1.12-.22-.26-.54-.39-.96-.39Z"/><path class="cls-1" d="m14.05,0H1.95C.87,0,0,.88,0,1.97v16.05c0,1.09.87,1.97,1.95,1.97h12.1c1.08,0,1.95-.88,1.95-1.97V1.97c0-1.09-.87-1.97-1.95-1.97Zm-6.11,4.62c.39-.43.75-.81,1.07-1.16s.67-.74,1.05-1.16h.27l1.14,1.38-.02.27c-.75.52-1.4.99-1.97,1.41-.57.42-1.17.88-1.79,1.37h0l-.3-.08-.63-.76c.4-.41.8-.83,1.2-1.26Zm4.12,7.23c-.04.22-.07.39-.09.51l-.25.25h-5.27c.03.95.25,1.69.66,2.21s1,.82,1.74.88c.75.06,1.62-.15,2.63-.62l.14.08.33,1.01c-.27.21-.61.43-1.02.67s-.83.44-1.26.61c-.43.17-.83.25-1.18.25h0c-.95,0-1.77-.19-2.45-.58s-1.22-.94-1.59-1.65c-.37-.71-.56-1.55-.56-2.51,0-.75.12-1.45.37-2.08s.59-1.18,1.02-1.66.94-.84,1.53-1.11,1.21-.4,1.89-.4c2.28,0,3.42,1.17,3.42,3.5,0,.21-.01.42-.05.64Z"/></svg>