<?xml version="1.0" encoding="UTF-8"?><svg id="Layer_1" xmlns="http://www.w3.org/2000/svg" viewBox="0 0 15.93 14.76"><path d="m2.31,7.81c-.47,0-.87-.1-1.22-.3-.35-.2-.61-.48-.81-.83-.19-.36-.29-.78-.29-1.26,0-.37.06-.72.19-1.05.13-.32.3-.61.52-.86.22-.25.48-.44.77-.58.29-.14.6-.21.93-.21,1.12,0,1.67.55,1.67,1.65,0,.1,0,.2-.03.31-.02.11-.03.19-.05.25l-.13.12H1.05c0,.57.11,1.01.34,1.34.23.33.55.51.96.55s.9-.06,1.46-.32l.06.03.15.4c-.15.11-.32.22-.52.33s-.41.22-.61.3c-.21.08-.4.12-.57.12Zm-1.24-3.23l1.71-.08c.09-.01.15-.04.19-.07s.05-.1.05-.2c0-.28-.07-.48-.2-.63-.13-.14-.33-.21-.58-.21-.3,0-.56.1-.77.31-.21.21-.34.5-.39.87Zm.78-2.42l-.12-.03-.27-.29c.2-.21.39-.43.59-.64.19-.22.37-.41.54-.59.16-.18.34-.38.53-.61l.12.02.49.55v.13c-.37.27-.69.51-.98.74-.29.22-.58.46-.9.73Z"/><path d="m5.04,7.21c.21-.02.35-.09.42-.2.07-.11.11-.32.11-.62v-2.23c0-.24-.03-.41-.1-.5-.06-.1-.17-.14-.33-.14-.05,0-.12.01-.21.03l-.05-.07.04-.42c.26-.05.52-.1.77-.15.25-.05.55-.11.89-.19l.08.07c-.04.22-.06.41-.07.57-.01.16-.02.32-.02.48l.04.03c.23-.33.48-.59.75-.79.27-.2.52-.3.75-.3.11,0,.23.01.35.04l.03.06c-.03.21-.05.39-.08.56-.02.17-.05.36-.06.56-.02.2-.03.39-.05.58l-.53.03c0-.31-.02-.52-.05-.61-.04-.1-.12-.15-.24-.15-.13,0-.28.05-.43.16-.15.11-.3.25-.43.45-.01.25-.02.48-.03.67,0,.19-.02.39-.03.6-.01.21-.02.39-.03.54,0,.16-.01.25-.01.3,0,.21.03.36.1.44.07.08.19.12.37.12.09,0,.26-.01.5-.03l.02.05-.11.57c-.16,0-.31-.01-.43-.02-.13,0-.26,0-.4-.01-.14,0-.26,0-.38,0-.21,0-.41,0-.59.01-.18,0-.39.02-.61.03l.06-.52Z"/><path d="m12.68,7.81c-.3,0-.53-.07-.7-.21s-.27-.35-.3-.63l-.06-.02c-.16.16-.31.3-.46.42-.15.12-.29.22-.41.29-.12.07-.22.11-.3.11-.27,0-.51-.06-.72-.19-.21-.12-.38-.29-.5-.5-.12-.21-.18-.45-.18-.72,0-.21.05-.4.16-.56.11-.16.25-.26.42-.31l2.02-.52v-.37c.01-.32-.07-.58-.23-.77-.16-.19-.39-.28-.68-.28-.2,0-.41.05-.63.14-.22.1-.43.22-.63.38l-.06-.04-.16-.53c.2-.11.42-.23.66-.35.24-.12.47-.22.68-.3.22-.08.38-.12.49-.12.35,0,.65.06.89.17.24.12.42.28.54.49.12.21.18.45.18.74,0,.09-.01.24-.03.43-.02.2-.05.42-.07.66-.03.24-.05.47-.07.69-.02.22-.03.4-.03.54,0,.15.04.26.11.34.07.08.17.12.3.12.11,0,.21-.03.32-.08.11-.05.19-.1.25-.15l.16.2c-.06.11-.15.22-.25.36-.1.13-.22.25-.34.36-.12.11-.25.18-.38.22Zm-1.95-.89c.12,0,.26-.04.42-.12.16-.08.31-.18.45-.3l.04-1.04-1.3.37c-.18.06-.28.19-.28.4,0,.19.06.35.19.49.12.13.28.2.48.2Z"/><path d="m1.47,14.76c-.26,0-.49-.02-.69-.06-.2-.04-.41-.11-.63-.19l-.04-.08c.01-.09.03-.22.05-.4.02-.17.04-.36.05-.55.02-.19.03-.35.03-.47l.47-.05c0,.42.09.72.24.9.16.18.41.28.75.28.23,0,.43-.05.59-.16.16-.11.24-.24.24-.39,0-.11-.03-.2-.1-.3-.06-.09-.18-.19-.34-.3-.17-.11-.4-.24-.72-.39-.41-.2-.71-.42-.9-.64-.19-.22-.28-.46-.28-.73,0-.3.09-.57.27-.81.18-.23.42-.42.74-.55.31-.13.67-.2,1.05-.2.32,0,.69.06,1.12.18l.03.07c-.05.25-.09.48-.12.68-.03.2-.06.41-.08.65l-.49.04c.01-.13.02-.21.02-.25,0-.25-.07-.44-.2-.56-.13-.12-.33-.17-.61-.17-.22,0-.4.05-.55.15-.15.1-.22.23-.22.38s.07.3.2.43c.13.13.34.27.64.43.4.19.7.37.92.52.22.16.37.32.46.47.09.16.13.33.13.52,0,.28-.09.54-.28.78-.18.24-.43.42-.74.56-.31.14-.65.21-1.03.21Z"/><path d="m6.6,14.76c-.47,0-.87-.1-1.22-.3-.35-.2-.61-.48-.81-.83-.19-.36-.29-.78-.29-1.26,0-.37.06-.72.19-1.05.13-.32.3-.61.52-.86.22-.25.48-.44.77-.58.29-.14.6-.21.93-.21,1.12,0,1.67.55,1.67,1.65,0,.1,0,.2-.03.31-.02.11-.03.19-.05.25l-.13.12h-2.84c0,.57.11,1.01.34,1.34.23.33.55.51.96.55s.9-.06,1.46-.32l.06.03.15.4c-.15.11-.32.22-.52.33-.2.12-.41.22-.61.3-.21.08-.4.12-.57.12Zm-1.24-3.23l1.71-.08c.09-.01.15-.04.19-.07.03-.03.05-.1.05-.2,0-.28-.07-.48-.2-.63-.13-.14-.33-.21-.58-.21-.3,0-.56.1-.77.31-.21.21-.34.5-.39.87Z"/><path d="m10.28,14.75c-.23,0-.4-.07-.51-.2-.11-.13-.17-.29-.17-.48,0-.22.07-.4.21-.54.14-.14.32-.21.54-.21s.4.07.51.2c.12.13.17.3.17.49s-.07.38-.2.52c-.13.14-.32.22-.55.22Z"/><path d="m12.73,14.75c-.23,0-.4-.07-.51-.2-.11-.13-.17-.29-.17-.48,0-.22.07-.4.21-.54.14-.14.32-.21.54-.21s.4.07.51.2c.12.13.17.3.17.49s-.07.38-.2.52c-.13.14-.32.22-.55.22Z"/><path d="m15.18,14.75c-.23,0-.4-.07-.51-.2-.11-.13-.17-.29-.17-.48,0-.22.07-.4.21-.54.14-.14.32-.21.54-.21s.4.07.51.2c.12.13.17.3.17.49s-.07.38-.2.52c-.13.14-.32.22-.55.22Z"/></svg>